<svg id="图层_1" data-name="图层 1" xmlns="http://www.w3.org/2000/svg" viewBox="0 0 190.34574 38">
  <defs>
    <style>
      .cls-1, .cls-2 {
        fill: #fff;
      }

      .cls-2 {
        font-size: 10.2985px;
        font-family: PTSans-Caption, PT Sans Caption;
      }

      .cls-3 {
        letter-spacing: -0.07503em;
      }

      .cls-4 {
        letter-spacing: -0.014em;
      }

      .cls-5 {
        letter-spacing: -0.02393em;
      }

      .cls-6 {
        letter-spacing: -0.00008em;
      }
    </style>
  </defs>
  <title>logo</title>
  <g id="v2.2.0">
    <g id="首页-默认效果-copy-2">
      <path id="Shape-Copy" class="cls-1" d="M142.13544,26.15782s.2848-.00729.8255,0a.71124.71124,0,0,1,.68791.413s1.085,1.99571,1.37582,2.47829c.259.42957-.05145.42172-.12286.4147l-.01471-.00165.01471.00165c-.00316.00441-.30708.01446-3.45428-.00165a4.94041,4.94041,0,0,1-4.54023-4.54353V17.89686h-2.47648v-2.616c0-.35659.41275-.413.41275-.413h2.06373v-2.616a.59357.59357,0,0,1,.41275-.55074s1.45259-.41525,2.29776-.657c.34685-.09913.45389.1063.45389.1063s.13759-.073.13759.24232v3.61279h3.57715c.34822,0,.41275.41305.41275.41305v2.616h-3.9899v6.058c0,1.76083,1.92615,2.06524,1.92615,2.06524Zm-10.59386,3.029h-2.20132c-.43187,0-.41275-.55073-.41275-.55073V18.4476c0-.61889-.8255-.8261-.8255-.8261h-4.54023c-.67732,0-.68791.8261-.68791.8261V28.77379a.41129.41129,0,0,1-.41275.413H120.2598c-.484,0-.41275-.55073-.41275-.55073V15.83162c0-1.02848,1.23825-1.23914,1.23825-1.23914h9.63078c.9617,0,1.23825,1.23914,1.23825,1.23914V28.49843c0,.72022-.41275.68841-.41275.68841Zm-15.68443-5.78267H107.327v2.06524c0,.74418.96307.96378.96307.96378h6.87914a1.18509,1.18509,0,0,1,.8255.41305s.60026,1.24892.8255,1.78987-.41275.55073-.41275.55073H106.08878c-1.24265,0-1.5134-1.51451-1.5134-1.51451v-11.703c0-.673.96307-.96378.96307-.96378h10.3187c1.037,0,1.23825,1.23914,1.23825,1.23914V22.165c0,.99889-1.23825,1.23914-1.23825,1.23914Zm-1.5134-4.95657s-.08669-.68842-.68793-.68842h-5.64088s-.68791.18463-.68791.68842v1.51451a.69123.69123,0,0,0,.68791.68841h5.64088a.90282.90282,0,0,0,.68793-.8261V18.4476ZM101.411,29.18684h-2.2013c-.29044,0-.41275-.413-.41275-.413V18.4476c0-.64037-.8255-.8261-.8255-.8261H95.90767c-.57579,0-.68791.8261-.68791.8261V28.77379c0,.34256-.41275.413-.41275.413H92.60568c-.30612,0-.41275-.413-.41275-.413V18.4476c0-.65469-.8255-.8261-.8255-.8261H89.3037c-.62972,0-.68792.8261-.68792.8261V28.77379a.38216.38216,0,0,1-.41275.413H86.00171a.40479.40479,0,0,1-.41275-.413V15.69394c0-.75767,1.10066-1.10146,1.10066-1.10146h13.75827c1.10439,0,1.37583,1.37683,1.37583,1.37683V28.77379c0,.47556-.41276.413-.41276.413ZM81.46149,23.40417H72.93137v2.06524c0,.74418.96307.96378.96307.96378h6.87913a1.1851,1.1851,0,0,1,.82551.41305s.60012,1.24892.82548,1.78987-.41275.55073-.41275.55073H71.69312c-1.24265,0-1.51342-1.51451-1.51342-1.51451v-11.703c0-.673.96309-.96378.96309-.96378h10.3187c1.037,0,1.23825,1.23914,1.23825,1.23914V22.165c0,.99889-1.23825,1.23914-1.23825,1.23914ZM79.94807,18.4476s-.08667-.68842-.68791-.68842H73.61928s-.68791.18463-.68791.68842v1.51451a.69123.69123,0,0,0,.68791.68841h5.64088a.90281.90281,0,0,0,.68791-.8261V18.4476ZM68.116,29.18684H62.88783a4.3449,4.3449,0,0,1-4.12748-3.99279c-.0121-3.915,0-16.10888,0-16.10888h2.47648a.79642.79642,0,0,1,.8255.8261V24.368a2.5629,2.5629,0,0,0,1.92615,1.65219c1.85132-.00936,2.20132,0,2.20132,0s.7175-.22993,1.23825.68841,1.10067,1.92756,1.10067,1.92756.08282.55073-.41275.55073Zm-26.55345-.82609V10.18664a.94628.94628,0,0,1,.68791-.96378H55.1832c.72327,0,.41275.82609.41275.82609a17.46426,17.46426,0,0,1-.68792,1.65219,1.03092,1.03092,0,0,1-.8255.55074H45.69a.76236.76236,0,0,0-.8255.68841v4.54353H54.3577c.55693,0,.27517.68841.27517.68841s-.711,1.51671-.96309,1.92756a1.05107,1.05107,0,0,1-.82549.413h-7.9798v4.8189a.90187.90187,0,0,0,.68792.82609H54.3577a.8607.8607,0,0,1,.8255.413s.872,1.36155,1.23824,1.92756c.36639.566-.13758.68841-.13758.68841H42.388C41.81415,29.18684,41.56252,28.36075,41.56252,28.36075Zm-8.146-1.14318c-.00949,1.577-.82866,1.92879-.82866,1.92879S18.45205,37.31453,17.533,37.82629a1.6791,1.6791,0,0,1-1.51933,0S1.22257,29.248.68269,28.87086a1.30038,1.30038,0,0,1-.55252-.96447s.01485-16.98646,0-17.773S1.097,8.75556,1.097,8.75556L15.87553.21345a2.0336,2.0336,0,0,1,1.7956,0S30.72662,7.80211,32.17344,8.61774a2.08555,2.08555,0,0,1,1.24306,2.06662s.00881,15.06758,0,16.53321ZM27.516,10.16915c-3.026-1.74168-10.15442-5.872-10.15442-5.872a1.60115,1.60115,0,0,0-1.40982,0l-11.603,6.68505s-.77074.46275-.759,1.07833,0,13.90939,0,13.90939a1.01619,1.01619,0,0,0,.4338.75477c.42389.29506,12.03669,7.0086,12.03669,7.0086a1.32193,1.32193,0,0,0,1.19284,0c.72163-.40052,11.82-6.793,11.82-6.793s.64319-.27536.65062-1.50955c.00206-.35591.00289-1.73742.003-3.47318L16.66,29.87526v-3.029a2.96748,2.96748,0,0,1,.96308-2.06524l11.55763-6.96441a2.47461,2.47461,0,0,0,.54469-1.46094c-.00041-1.26517-.001-2.37035-.00137-3.07047L16.66,21.20125v-3.1667a2.16574,2.16574,0,0,1,.8255-1.78988Z"/>
    </g>
  </g>
  <text class="cls-2" transform="translate(146.51465 10.507) scale(1.14497 1)">B<tspan class="cls-3" x="6.60155" y="0">L</tspan><tspan class="cls-4" x="11.65761" y="0">A</tspan><tspan class="cls-5" x="18.15596" y="0">Z</tspan><tspan class="cls-6" x="24.04702" y="0">OR</tspan></text>
</svg>
